<svg id="Add to Pocket Casts" data-name="Add to Pocket Casts" xmlns="http://www.w3.org/2000/svg" xmlns:xlink="http://www.w3.org/1999/xlink" viewBox="0 0 34 34">
	<defs>
		<style>
			.cls-1{fill:#e14e50;}.cls-2{fill:#fff;}
		</style>
	</defs>
	<title>
		pocketcasts
	</title>
	<path id="_Tracé_" data-name="&lt;Tracé&gt;" class="cls-1" d="M33.32,29.47a7.2,7.2,0,0,1-2.17,2.85,7.11,7.11,0,0,1-2.39,1.24,14.8,14.8,0,0,1-4.11.43H9.35a14.8,14.8,0,0,1-4.11-.43,7.19,7.19,0,0,1-4.57-4.1A13.34,13.34,0,0,1,0,24.65H0V9.35H0A13.31,13.31,0,0,1,.68,4.53,7.19,7.19,0,0,1,5.25.44,14.8,14.8,0,0,1,9.35,0h15.3a14.8,14.8,0,0,1,4.11.43,7.19,7.19,0,0,1,4.57,4.1A13.34,13.34,0,0,1,34,9.35v15.3A13.31,13.31,0,0,1,33.32,29.47Z" />
	<path class="cls-2" d="M17,24.76h0A7.76,7.76,0,1,1,24.76,17v0H27.5v0A10.5,10.5,0,1,0,17,27.5h0Z" />
	<path class="cls-2" d="M17,10.61a6.39,6.39,0,0,0,0,12.79h0V21.11h0A4.11,4.11,0,1,1,21.11,17v0h2.28v0A6.39,6.39,0,0,0,17,10.61Z" />
</svg>
