<svg id="Subscribe in Apple Podcasts" data-name="Subscribe in Apple Podcasts" xmlns="http://www.w3.org/2000/svg" xmlns:xlink="http://www.w3.org/1999/xlink" viewBox="0 0 34 34">
	<defs>
		<style>
			.cls-1{fill:#b049da;}.cls-2{fill:none;}.cls-3{fill:#fff;}
		</style>
	</defs>
	<title>
		apple_podcasts
	</title>
	<g id="_Groupe_" data-name="&lt;Groupe&gt;">
		<g id="_Groupe_2" data-name="&lt;Groupe&gt;">
			<path id="_Tracé_" data-name="&lt;Tracé&gt;" class="cls-1" d="M33.32,29.47a7.2,7.2,0,0,1-2.17,2.85,7.11,7.11,0,0,1-2.39,1.24,14.8,14.8,0,0,1-4.11.43H9.35a14.8,14.8,0,0,1-4.11-.43,7.19,7.19,0,0,1-4.57-4.1A13.34,13.34,0,0,1,0,24.65H0V9.36H0A13.31,13.31,0,0,1,.67,4.54,7.19,7.19,0,0,1,5.24.44,14.8,14.8,0,0,1,9.35,0h15.3a14.8,14.8,0,0,1,4.11.43,7.19,7.19,0,0,1,4.57,4.1A13.34,13.34,0,0,1,34,9.36v15.3A13.31,13.31,0,0,1,33.32,29.47Z" />
			<path id="_Tracé_2" data-name="&lt;Tracé&gt;" class="cls-2" d="M33.32,29.47a7.2,7.2,0,0,1-2.17,2.85,7.11,7.11,0,0,1-2.39,1.24,14.8,14.8,0,0,1-4.11.43H9.35a14.8,14.8,0,0,1-4.11-.43,7.19,7.19,0,0,1-4.57-4.1A13.34,13.34,0,0,1,0,24.65H0V9.36H0A13.31,13.31,0,0,1,.67,4.54,7.19,7.19,0,0,1,5.24.44,14.8,14.8,0,0,1,9.35,0h15.3a14.8,14.8,0,0,1,4.11.43,7.19,7.19,0,0,1,4.57,4.1A13.34,13.34,0,0,1,34,9.36v15.3A13.31,13.31,0,0,1,33.32,29.47Z" />
			<g id="_Groupe_3" data-name="&lt;Groupe&gt;">
				<path class="cls-3" d="M19.46,19.55A3.41,3.41,0,0,0,17,18.66a3.4,3.4,0,0,0-2.46.88,1.56,1.56,0,0,0-.45,1,12.7,12.7,0,0,0,.05,2.57c.09,1,.26,2.43.48,3.85a14.73,14.73,0,0,0,.4,1.94,1.92,1.92,0,0,0,2,1.18,1.92,1.92,0,0,0,2-1.18,14.62,14.62,0,0,0,.4-1.94c.22-1.41.39-2.8.48-3.85a12.82,12.82,0,0,0,.06-2.57A1.56,1.56,0,0,0,19.46,19.55Zm-5.24-4.79A2.78,2.78,0,1,0,17,12,2.78,2.78,0,0,0,14.22,14.76ZM17,3.78A12,12,0,0,0,13,27a.16.16,0,0,0,.21-.17c-.06-.41-.12-.82-.17-1.22a.41.41,0,0,0-.24-.32,10.42,10.42,0,1,1,8.32,0,.41.41,0,0,0-.24.32c-.05.4-.11.82-.17,1.22A.16.16,0,0,0,21,27,12,12,0,0,0,17,3.78Zm-.22,5.48a6.47,6.47,0,0,1,4.69,11.19.5.5,0,0,0-.16.39,11.78,11.78,0,0,1,0,1.36.16.16,0,0,0,.25.14,8,8,0,1,0-9,0,.16.16,0,0,0,.24-.14,11.17,11.17,0,0,1,0-1.37.49.49,0,0,0-.16-.39A6.47,6.47,0,0,1,16.75,9.26Z" />
			</g>
		</g>
	</g>
</svg>
