<svg id="Subscribe via RSS" data-name="Subscribe via RSS" xmlns="http://www.w3.org/2000/svg" xmlns:xlink="http://www.w3.org/1999/xlink" viewBox="0 0 34 34">
	<defs>
		<style>
			.cls-1{fill:#444;}.cls-2{fill:#fff;}
		</style>
	</defs>
	<title>
		rss
	</title>
	<path id="_Tracé_" data-name="&lt;Tracé&gt;" class="cls-1" d="M33.32,29.46a7.2,7.2,0,0,1-2.17,2.85,7.11,7.11,0,0,1-2.39,1.24,14.8,14.8,0,0,1-4.11.43H9.35a14.8,14.8,0,0,1-4.11-.43,7.19,7.19,0,0,1-4.57-4.1A13.34,13.34,0,0,1,0,24.64H0V9.35H0A13.31,13.31,0,0,1,.68,4.53,7.19,7.19,0,0,1,5.25.43,14.8,14.8,0,0,1,9.35,0h15.3a14.8,14.8,0,0,1,4.11.43,7.19,7.19,0,0,1,4.57,4.1A13.34,13.34,0,0,1,34,9.35v15.3A13.31,13.31,0,0,1,33.32,29.46Z" />
	<path class="cls-2" d="M9.43,21.81a2.74,2.74,0,1,0,2.75,2.74A2.75,2.75,0,0,0,9.43,21.81ZM6.69,13.69v4a9.66,9.66,0,0,1,9.65,9.67h4A13.64,13.64,0,0,0,6.69,13.69Zm0-7v4A16.69,16.69,0,0,1,23.35,27.31h4A20.66,20.66,0,0,0,6.69,6.68Z" />
</svg>
